FFmpeg version SVN-r25716, Copyright (c) 2000-2010 the FFmpeg developers  built on Nov 10 2010 12:23:18 with gcc 4.1.2 20080704 (Red Hat 4.1.2-48)  configuration: --enable-libmp3lame --enable-shared --disable-mmx --arch=x86_64  libavutil     50.33. 0 / 50.33. 0  libavcore      0.12. 1 /  0.12. 1  libavcodec    52.94. 4 / 52.94. 4  libavformat   52.84. 0 / 52.84. 0  libavdevice   52. 2. 2 / 52. 2. 2  libavfilter    1.59. 0 /  1.59. 0  libswscale     0.12. 0 /  0.12. 0Seems stream 0 codec frame rate differs from container frame rate: 1000.00 (1000/1) -> 60.00 (60/1)Input #0, mov,mp4,m4a,3gp,3g2,mj2, from '/RAID10/data/converted_video_files/34520.mov':  Metadata:    major_brand     : qt      minor_version   : 537199360    compatible_brands: qt    Duration: 00:00:33.33, start: 0.000000, bitrate: 441 kb/s    Stream #0.0(eng): Video: mpeg4, yuv420p, 249x190 [PAR 1:1 DAR 249:190], 437 kb/s, 60 fps, 60 tbr, 600 tbn, 1k tbc[buffer @ 0x13f310a0] w:249 h:190 pixfmt:yuv420pOutput #0, flv, to '/RAID10/data/converted_video_files/34520.flv':  Metadata:    encoder         : Lavf52.84.0    Stream #0.0(eng): Video: flv, yuv420p, 249x190 [PAR 1:1 DAR 249:190], q=2-31, 600 kb/s, 1k tbn, 24 tbcStream mapping:  Stream #0.0 -> #0.0Press [q] to stop encodingframe=  166 fps=  0 q=2.0 size=     496kB time=6.92 bitrate= 587.6kbits/s dup=0 drop=246    frame=  388 fps=379 q=2.0 size=    1172kB time=16.17 bitrate= 594.0kbits/s dup=0 drop=579    frame=  541 fps=355 q=1.6 size=    1639kB time=22.54 bitrate= 595.5kbits/s dup=0 drop=809    frame=  629 fps=307 q=2.0 size=    1889kB time=26.21 bitrate= 590.3kbits/s dup=0 drop=941    frame=  747 fps=296 q=2.0 size=    2230kB time=31.12 bitrate= 587.0kbits/s dup=0 drop=1119    frame=  801 fps=297 q=2.0 Lsize=    2391kB time=33.38 bitrate= 586.8kbits/s dup=0 drop=1199    video:2378kB audio:0kB global headers:0kB muxing overhead 0.534934%